<svg id="SvgjsSvg1001" width="288" height="288" xmlns="http://www.w3.org/2000/svg" version="1.1" xmlns:xlink="http://www.w3.org/1999/xlink" xmlns:svgjs="http://svgjs.com/svgjs"><rect id="SvgjsRect1012" width="288" height="288" rx="20" ry="20" transform="matrix(1,0,0,1,0,0)" fill="#0000ff"></rect><defs id="SvgjsDefs1002"></defs><g id="SvgjsG1008" transform="matrix(0.85,0,0,0.85,21.60000000000001,21.60000000000001)"><svg xmlns="http://www.w3.org/2000/svg" viewBox="0 0 24 24" width="288" height="288"><g data-name="Layer 2" fill="#ffb800" class="color000 svgShape"><path d="M12 22A10 10 0 1 0 2 12a10 10 0 0 0 10 10zM8.31 10.14l3-2.86a.49.49 0 0 1 .15-.1.54.54 0 0 1 .16-.1.94.94 0 0 1 .76 0 1 1 0 0 1 .33.21l3 3a1 1 0 0 1-1.42 1.42L13 10.41V16a1 1 0 0 1-2 0v-5.66l-1.31 1.25a1 1 0 0 1-1.38-1.45z" data-name="arrow-circle-up" fill="#ffb800" class="color000 svgShape"></path></g></svg></g></svg>